<svg id="visual" viewBox="0 0 1920 1080" width="1920" height="1080" xmlns="http://www.w3.org/2000/svg" xmlns:xlink="http://www.w3.org/1999/xlink" version="1.1"><rect x="0" y="0" width="1920" height="1080" fill="#002233"></rect><path d="M0 352L40 349.8C80 347.7 160 343.3 240 314.2C320 285 400 231 480 213.8C560 196.7 640 216.3 720 243.7C800 271 880 306 960 305.8C1040 305.7 1120 270.3 1200 275.8C1280 281.3 1360 327.7 1440 345.3C1520 363 1600 352 1680 324.5C1760 297 1840 253 1880 231L1920 209L1920 0L1880 0C1840 0 1760 0 1680 0C1600 0 1520 0 1440 0C1360 0 1280 0 1200 0C1120 0 1040 0 960 0C880 0 800 0 720 0C640 0 560 0 480 0C400 0 320 0 240 0C160 0 80 0 40 0L0 0Z" fill="#0066FF" stroke-linecap="round" stroke-linejoin="miter"></path></svg>